:SAMPLES-PER-SECOND 30
:FULLY-SPECIFIED
:DEGREES
94
root  32.3077 37.4836 -17.2806 142.392 74.0687 149.861
RightUpLeg  -2.19932 -11.3335 -11.9915
RightLeg  68.2679 -1.63119 -5.22801
RightFoot  10.6471 -0.776615 4.28454
RightToes  0.000482159 0.542163 -0.142577
Spine  9.50774 1.6374 -4.62081
Spine1  11.0779 2.9481 -4.91914
HEad  27.156 -13.0908 -3.0593
LeftShoulder1  6.38081 -10.0029 -40.9226
LeftArm  -15.625 22.0775 -27.4573
LeftForeArm  32.3174 -22.7393 -3.25703
LeftHand  -0.25398 0.0180481 5.50724
RightShoulder  4.68597 7.91345 35.0789
RightArm  -9.918 -13.095 42.6825
RightForeArm  19.5421 7.68746 5.88373
RightHand  -0.496955 -1.01512 -13.0703
LeftUpLeg  -19.1433 19.3332 -14.1177
LeftLeg  24.7609 10.0071 5.3396
LeftFoot  -0.243667 -1.24131 12.75
LeftToes  1.06246e-005 4.65855e-005 -8.18503e-006
95
root  33.3608 37.7796 -17.3096 146.677 72.1106 154.328
RightUpLeg  -9.01021 -11.5179 -10.8722
RightLeg  71.8491 -1.29074 -5.34922
RightFoot  8.65137 -0.594634 3.7509
RightToes  0.000482159 0.542163 -0.142577
Spine  11.3843 1.31332 -4.89577
Spine1  11.0635 2.37956 -4.47157
HEad  27.1915 -13.5565 -3.39417
LeftShoulder1  6.34934 -9.99249 -40.7382
LeftArm  -16.4073 20.629 -28.0275
LeftForeArm  33.8776 -27.1382 -4.02002
LeftHand  -0.25398 0.0180481 5.50724
RightShoulder  4.78029 8.10826 35.202
RightArm  -4.78635 -12.7115 42.1331
RightForeArm  18.5801 11.237 6.57724
RightHand  -0.56436 -0.642304 -13.7117
LeftUpLeg  -16.8759 18.0394 -13.2178
LeftLeg  24.5657 8.87389 4.74238
LeftFoot  -1.15904 -1.06388 11.9703
LeftToes  1.06246e-005 4.65855e-005 -8.18503e-006
96
root  34.3838 38.0682 -17.274 152.949 69.048 160.461
RightUpLeg  -14.6735 -12.3062 -9.86723
RightLeg  70.697 -1.0789 -4.3383
RightFoot  6.22647 -0.897064 6.06839
RightToes  0.000482159 0.542163 -0.142577
Spine  12.7414 0.614229 -5.55035
Spine1  11.0088 1.06583 -3.0467
HEad  27.86 -14.1832 -3.66479
LeftShoulder1  6.32044 -9.99533 -40.5279
LeftArm  -16.4556 19.741 -28.5456
LeftForeArm  37.1569 -32.6823 -5.11569
LeftHand  -0.25398 0.0180481 5.50724
RightShoulder  4.69975 7.96478 35.0158
RightArm  2.00487 -12.4204 41.806
RightForeArm  14.0565 16.1757 5.94041
RightHand  -0.666482 -0.0982366 -14.6122
LeftUpLeg  -15.02 15.3906 -12.0774
LeftLeg  24.302 8.10827 4.32007
LeftFoot  -2.08363 -0.843343 10.5305
LeftToes  1.06246e-005 4.65855e-005 -8.18503e-006
97
root  35.4124 38.3087 -17.1919 158.359 65.7376 165.549
RightUpLeg  -19.2939 -12.2294 -8.97269
RightLeg  65.8082 -1.27901 -3.7455
RightFoot  5.03482 -1.05388 7.53927
RightToes  0.000482159 0.542163 -0.142577
Spine  13.704 0.0686733 -5.87684
Spine1  10.9019 -0.0331808 -1.70069
HEad  28.9756 -15.4453 -3.5945
LeftShoulder1  6.30799 -10.1094 -40.0728
LeftArm  -15.9478 19.2248 -29.0662
LeftForeArm  41.1814 -38.7828 -6.45728
LeftHand  -0.25398 0.0180481 5.50724
RightShoulder  4.50417 7.63404 34.4849
RightArm  5.97534 -12.5878 41.8046
RightForeArm  9.08931 21.1598 4.75411
RightHand  -0.766566 0.488431 -15.1825
LeftUpLeg  -13.5724 12.9798 -10.7215
LeftLeg  24.0878 6.73058 3.62016
LeftFoot  -3.1781 -0.631297 9.10526
LeftToes  1.06246e-005 4.65855e-005 -8.18503e-006
98
root  36.442 38.512 -17.0584 162.246 62.5717 169.106
RightUpLeg  -22.4766 -10.9252 -8.64704
RightLeg  57.8425 -2.09735 -4.03025
RightFoot  3.95739 -0.975046 7.45335
RightToes  0.000482159 0.542163 -0.142577
Spine  14.689 -0.143396 -6.05387
Spine1  10.6144 -0.703283 -0.494312
HEad  30.0427 -17.3182 -3.28202
LeftShoulder1  6.26686 -10.2196 -39.4368
LeftArm  -15.0631 18.8112 -29.4995
LeftForeArm  44.6988 -44.8031 -8.06367
LeftHand  -0.25398 0.0180481 5.50724
RightShoulder  4.35335 7.38512 34.0303
RightArm  5.25077 -12.8654 41.4917
RightForeArm  6.34445 25.2954 5.01161
RightHand  -0.875014 1.0207 -15.9182
LeftUpLeg  -12.5208 10.7794 -9.25891
LeftLeg  24.12 5.06619 2.81415
LeftFoot  -4.07605 -0.491102 8.1143
LeftToes  1.06246e-005 4.65855e-005 -8.18503e-006
99
root  37.494 38.5689 -16.8605 164.71 58.8545 171.246
RightUpLeg  -23.8458 -9.16777 -9.81558
RightLeg  47.7632 -2.62009 -3.46306
RightFoot  3.08208 -1.04657 8.42234
RightToes  0.000482159 0.542163 -0.142577
Spine  15.8604 -0.260984 -6.95448
Spine1  10.2003 -1.43042 0.865698
HEad  30.6973 -19.5195 -2.9547
LeftShoulder1  6.23338 -10.3266 -38.8716
LeftArm  -14.248 18.4123 -29.7065
LeftForeArm  47.3671 -50.4099 -9.95475
LeftHand  -0.25398 0.0180481 5.50724
RightShoulder  4.30333 7.30866 33.8513
RightArm  3.66008 -12.7824 40.7764
RightForeArm  4.24544 28.4835 5.93832
RightHand  -1.01105 1.53217 -17.0488
LeftUpLeg  -12.2189 7.75083 -8.15279
LeftLeg  25.4753 4.0239 2.43194
LeftFoot  -5.35452 -0.334144 6.97801
LeftToes  1.06246e-005 4.65855e-005 -8.18503e-006
100
root  38.6409 38.4461 -16.6281 166.222 54.223 172.538
RightUpLeg  -23.6008 -7.18641 -12.4764
RightLeg  37.4425 -1.08676 -1.20278
RightFoot  2.95593 -1.37923 11.1228
RightToes  0.000482159 0.542163 -0.142577
Spine  16.928 -0.488492 -8.41687
Spine1  9.99288 -2.3779 2.32383
HEad  30.9651 -21.8767 -2.66003
LeftShoulder1  6.30144 -10.5915 -38.5257
LeftArm  -13.9638 17.9925 -29.7333
LeftForeArm  49.4698 -55.3158 -12.0561
LeftHand  -0.25398 0.0180481 5.50724
RightShoulder  4.28595 7.30792 33.6944
RightArm  2.3107 -12.3443 40.0762
RightForeArm  3.29852 30.7647 6.55059
RightHand  -1.15182 2.06882 -18.0387
LeftUpLeg  -12.3373 3.67848 -7.37745
LeftLeg  28.0667 3.41833 2.32777
LeftFoot  -7.43959 -0.143796 5.51747
LeftToes  1.06246e-005 4.65855e-005 -8.18503e-006
